#N canvas -9 23 1280 694 12;
#X msg 508 87 \; pd dsp 1;
#X obj 468 33 adc~;
#X obj 211 380 noteout 1;
#X floatatom 808 332 5 0 0 0 - - -;
#X obj 100 234 route 0 1 2 3 4 5 6 7 8 9;
#X floatatom 820 437 5 0 0 0 - - -;
#X obj 809 376 expr if($f1 > 20 \, $f1 \, 0);
#X obj 560 301 send env;
#X obj 810 277 receive env;
#X obj 14 216 send peaks;
#X obj 13 425 dac~;
#N canvas 227 87 930 630 route 0;
#X obj 65 64 unpack 0 0 0 0;
#X obj 63 7 receive peaks;
#X obj 85 114 ftom;
#X floatatom 129 113 5 0 0 0 - - -;
#X obj 85 295 outlet;
#X floatatom 344 46 5 0 0 0 - - -;
#X floatatom 340 205 5 0 0 0 - - -;
#X obj 344 8 receive env;
#X obj 339 379 outlet;
#X obj 65 39 route 1;
#X floatatom 207 114 5 0 0 0 - - -;
#X obj 356 98 pack f f;
#X floatatom 464 59 5 0 0 0 - - -;
#X obj 464 13 receive thres;
#X obj 341 150 expr if($f1 > $f2 \, $f1 \, 0);
#X obj 339 242 * 127;
#X floatatom 339 344 5 0 0 0 - - -;
#X obj 342 288 clip 0 127;
#X obj 124 188 expr if($f1 > 0.1 \, 1 \, 0);
#X obj 85 244 spigot;
#X connect 0 0 2 0;
#X connect 0 0 3 0;
#X connect 0 1 10 0;
#X connect 1 0 9 0;
#X connect 2 0 19 0;
#X connect 5 0 11 0;
#X connect 6 0 15 0;
#X connect 7 0 5 0;
#X connect 9 0 0 0;
#X connect 11 0 14 0;
#X connect 11 0 18 0;
#X connect 12 0 11 1;
#X connect 13 0 12 0;
#X connect 14 0 6 0;
#X connect 15 0 17 0;
#X connect 16 0 8 0;
#X connect 17 0 16 0;
#X connect 18 0 19 1;
#X connect 19 0 4 0;
#X restore 128 263 pd route 2;
#X msg 181 134 -stabletime 100000;
#X obj 820 52 adc~;
#X obj 824 134 bonk~;
#X obj 871 47 loadbang;
#X floatatom 857 175 5 0 0 0 - - -;
#X floatatom 755 174 5 0 0 0 - - -;
#X msg 869 96 minvel 50;
#X obj 104 166 sigmund~ -stabletime 1000 -hop 15000 -npeak 10 peaks
-vibrato 10000 pitch env peaks;
#X floatatom 314 381 5 0 0 0 - - -;
#X obj 290 515 noteout 1;
#X floatatom 368 443 5 0 0 0 - - -;
#X obj 293 465 makenote;
#X obj 560 245 dbtorms;
#X floatatom 560 193 5 0 0 0 - - -;
#X floatatom 560 274 5 0 0 0 - - -;
#X obj 998 225 send thres;
#X floatatom 1054 157 5 0 0 0 - - -;
#X text 1069 131 Threshold/Sensitivity;
#N canvas 350 46 930 630 route 1;
#X obj 65 64 unpack 0 0 0 0;
#X obj 63 7 receive peaks;
#X obj 85 114 ftom;
#X floatatom 129 113 5 0 0 0 - - -;
#X obj 85 295 outlet;
#X floatatom 344 46 5 0 0 0 - - -;
#X floatatom 340 205 5 0 0 0 - - -;
#X obj 344 8 receive env;
#X obj 339 379 outlet;
#X floatatom 207 114 5 0 0 0 - - -;
#X obj 356 98 pack f f;
#X floatatom 464 59 5 0 0 0 - - -;
#X obj 464 13 receive thres;
#X obj 341 150 expr if($f1 > $f2 \, $f1 \, 0);
#X obj 339 242 * 127;
#X floatatom 339 344 5 0 0 0 - - -;
#X obj 342 288 clip 0 127;
#X obj 124 188 expr if($f1 > 0.1 \, 1 \, 0);
#X obj 85 244 spigot;
#X obj 65 39 route 0;
#X connect 0 0 2 0;
#X connect 0 0 3 0;
#X connect 0 1 9 0;
#X connect 1 0 19 0;
#X connect 2 0 18 0;
#X connect 5 0 10 0;
#X connect 6 0 14 0;
#X connect 7 0 5 0;
#X connect 10 0 13 0;
#X connect 10 0 17 0;
#X connect 11 0 10 1;
#X connect 12 0 11 0;
#X connect 13 0 6 0;
#X connect 14 0 16 0;
#X connect 15 0 8 0;
#X connect 16 0 15 0;
#X connect 17 0 18 1;
#X connect 18 0 4 0;
#X connect 19 0 0 0;
#X restore 46 263 pd route 1;
#N canvas 227 87 930 630 route 0;
#X obj 65 64 unpack 0 0 0 0;
#X obj 63 7 receive peaks;
#X obj 85 114 ftom;
#X floatatom 129 113 5 0 0 0 - - -;
#X obj 85 295 outlet;
#X floatatom 344 46 5 0 0 0 - - -;
#X floatatom 340 205 5 0 0 0 - - -;
#X obj 344 8 receive env;
#X obj 339 379 outlet;
#X floatatom 207 114 5 0 0 0 - - -;
#X obj 356 98 pack f f;
#X floatatom 464 59 5 0 0 0 - - -;
#X obj 464 13 receive thres;
#X obj 341 150 expr if($f1 > $f2 \, $f1 \, 0);
#X obj 339 242 * 127;
#X floatatom 339 344 5 0 0 0 - - -;
#X obj 342 288 clip 0 127;
#X obj 124 188 expr if($f1 > 0.1 \, 1 \, 0);
#X obj 85 244 spigot;
#X obj 65 39 route 2;
#X connect 0 0 2 0;
#X connect 0 0 3 0;
#X connect 0 1 9 0;
#X connect 1 0 19 0;
#X connect 2 0 18 0;
#X connect 5 0 10 0;
#X connect 6 0 14 0;
#X connect 7 0 5 0;
#X connect 10 0 13 0;
#X connect 10 0 17 0;
#X connect 11 0 10 1;
#X connect 12 0 11 0;
#X connect 13 0 6 0;
#X connect 14 0 16 0;
#X connect 15 0 8 0;
#X connect 16 0 15 0;
#X connect 17 0 18 1;
#X connect 18 0 4 0;
#X connect 19 0 0 0;
#X restore 208 263 pd route 3;
#N canvas 227 87 930 630 route 0;
#X obj 65 64 unpack 0 0 0 0;
#X obj 63 7 receive peaks;
#X obj 85 114 ftom;
#X floatatom 129 113 5 0 0 0 - - -;
#X obj 85 295 outlet;
#X floatatom 344 46 5 0 0 0 - - -;
#X floatatom 340 205 5 0 0 0 - - -;
#X obj 344 8 receive env;
#X obj 339 379 outlet;
#X floatatom 207 114 5 0 0 0 - - -;
#X obj 356 98 pack f f;
#X floatatom 464 59 5 0 0 0 - - -;
#X obj 464 13 receive thres;
#X obj 341 150 expr if($f1 > $f2 \, $f1 \, 0);
#X obj 339 242 * 127;
#X floatatom 339 344 5 0 0 0 - - -;
#X obj 342 288 clip 0 127;
#X obj 124 188 expr if($f1 > 0.1 \, 1 \, 0);
#X obj 85 244 spigot;
#X obj 65 39 route 3;
#X connect 0 0 2 0;
#X connect 0 0 3 0;
#X connect 0 1 9 0;
#X connect 1 0 19 0;
#X connect 2 0 18 0;
#X connect 5 0 10 0;
#X connect 6 0 14 0;
#X connect 7 0 5 0;
#X connect 10 0 13 0;
#X connect 10 0 17 0;
#X connect 11 0 10 1;
#X connect 12 0 11 0;
#X connect 13 0 6 0;
#X connect 14 0 16 0;
#X connect 15 0 8 0;
#X connect 16 0 15 0;
#X connect 17 0 18 1;
#X connect 18 0 4 0;
#X connect 19 0 0 0;
#X restore 288 263 pd route 4;
#N canvas 227 87 930 630 route 0;
#X obj 65 64 unpack 0 0 0 0;
#X obj 63 7 receive peaks;
#X obj 85 114 ftom;
#X floatatom 129 113 5 0 0 0 - - -;
#X obj 85 295 outlet;
#X floatatom 344 46 5 0 0 0 - - -;
#X floatatom 340 205 5 0 0 0 - - -;
#X obj 344 8 receive env;
#X obj 339 379 outlet;
#X floatatom 207 114 5 0 0 0 - - -;
#X obj 356 98 pack f f;
#X floatatom 464 59 5 0 0 0 - - -;
#X obj 464 13 receive thres;
#X obj 341 150 expr if($f1 > $f2 \, $f1 \, 0);
#X obj 339 242 * 127;
#X floatatom 339 344 5 0 0 0 - - -;
#X obj 342 288 clip 0 127;
#X obj 124 188 expr if($f1 > 0.1 \, 1 \, 0);
#X obj 85 244 spigot;
#X obj 65 39 route 4;
#X connect 0 0 2 0;
#X connect 0 0 3 0;
#X connect 0 1 9 0;
#X connect 1 0 19 0;
#X connect 2 0 18 0;
#X connect 5 0 10 0;
#X connect 6 0 14 0;
#X connect 7 0 5 0;
#X connect 10 0 13 0;
#X connect 10 0 17 0;
#X connect 11 0 10 1;
#X connect 12 0 11 0;
#X connect 13 0 6 0;
#X connect 14 0 16 0;
#X connect 15 0 8 0;
#X connect 16 0 15 0;
#X connect 17 0 18 1;
#X connect 18 0 4 0;
#X connect 19 0 0 0;
#X restore 367 262 pd route 5;
#N canvas 538 140 450 555 route 0;
#X obj 65 64 unpack 0 0 0 0;
#X obj 63 7 receive peaks;
#X obj 64 110 ftom;
#X floatatom 129 113 5 0 0 0 - - -;
#X obj 46 275 outlet;
#X floatatom 342 63 5 0 0 0 - - -;
#X floatatom 334 229 5 0 0 0 - - -;
#X obj 344 8 receive env;
#X obj 341 276 outlet;
#X floatatom 207 114 5 0 0 0 - - -;
#X obj 343 107 expr if($f1 > 40 \, $f1 \, 0);
#X obj 65 39 route 4;
#X connect 0 0 2 0;
#X connect 0 0 3 0;
#X connect 0 1 9 0;
#X connect 1 0 11 0;
#X connect 2 0 4 0;
#X connect 5 0 10 0;
#X connect 6 0 8 0;
#X connect 7 0 5 0;
#X connect 10 0 6 0;
#X connect 11 0 0 0;
#X restore 24 7 pd route 5 old;
#X obj 971 480 fiddle~;
#X msg 1010 102 0.001;
#X connect 1 0 19 0;
#X connect 3 0 6 0;
#X connect 6 0 5 0;
#X connect 8 0 3 0;
#X connect 11 0 2 0;
#X connect 11 1 2 1;
#X connect 12 0 19 0;
#X connect 13 0 14 0;
#X connect 14 0 17 0;
#X connect 14 1 16 0;
#X connect 15 0 18 0;
#X connect 15 0 36 0;
#X connect 18 0 14 0;
#X connect 19 0 9 0;
#X connect 19 0 4 0;
#X connect 19 2 24 0;
#X connect 20 0 2 2;
#X connect 20 0 21 2;
#X connect 22 0 23 2;
#X connect 23 0 21 0;
#X connect 23 0 21 1;
#X connect 24 0 26 0;
#X connect 25 0 24 0;
#X connect 26 0 7 0;
#X connect 28 0 27 0;
#X connect 30 0 2 0;
#X connect 30 1 2 1;
#X connect 31 0 2 0;
#X connect 31 1 2 1;
#X connect 32 0 2 0;
#X connect 32 1 2 1;
#X connect 33 0 2 0;
#X connect 33 1 2 1;
#X connect 36 0 27 0;
